<svg xmlns="http://www.w3.org/2000/svg" width="32" height="32" viewBox="0 0 32 32">
  <!-- Background circle -->
  <circle cx="16" cy="16" r="16" fill="#059669"/>
  
  <!-- Hospital icon in white -->
  <g transform="translate(4, 4)" stroke="white" stroke-width="1.5" fill="none" stroke-linecap="round" stroke-linejoin="round">
    <path d="M12 7v4"/>
    <path d="M14 21v-3a2 2 0 0 0-4 0v3"/>
    <path d="M14 9h-4"/>
    <path d="M18 11h2a2 2 0 0 1 2 2v6a2 2 0 0 1-2 2H4a2 2 0 0 1-2-2v-9a2 2 0 0 1 2-2h2"/>
    <path d="M18 21V5a2 2 0 0 0-2-2H8a2 2 0 0 0-2 2v16"/>
  </g>
</svg>
